<svg width="179" height="30" viewBox="0 0 179 30" fill="none" xmlns="http://www.w3.org/2000/svg">
<path d="M19.2719 29.8427C18.2359 29.7772 17.2331 29.574 16.2635 29.2333C15.3072 28.8794 14.4572 28.401 13.7134 27.7981C12.9696 27.1953 12.3985 26.4744 12 25.6356L16.1041 23.9056C16.2635 24.1677 16.5225 24.4495 16.8811 24.751C17.2397 25.0393 17.6648 25.2818 18.1562 25.4784C18.6609 25.675 19.2121 25.7732 19.8098 25.7732C20.3145 25.7732 20.7927 25.7077 21.2443 25.5767C21.7091 25.4325 22.081 25.2162 22.36 24.9279C22.6522 24.6396 22.7983 24.266 22.7983 23.8073C22.7983 23.3224 22.6256 22.9489 22.2803 22.6867C21.9482 22.4115 21.5232 22.2084 21.0052 22.0773C20.5005 21.9331 20.009 21.8021 19.5309 21.6841C18.2691 21.4351 17.0936 21.0485 16.0045 20.5242C14.9287 20 14.0587 19.325 13.3946 18.4993C12.7438 17.6605 12.4184 16.6514 12.4184 15.4718C12.4184 14.1743 12.7637 13.0537 13.4544 12.1101C14.1583 11.1664 15.0681 10.4391 16.1838 9.92791C17.3128 9.41677 18.5281 9.1612 19.8297 9.1612C21.4103 9.1612 22.858 9.48885 24.1729 10.1442C25.5011 10.7864 26.5504 11.6972 27.3208 12.8768L23.4756 15.1179C23.2897 14.8034 23.0307 14.5151 22.6986 14.2529C22.3666 13.9777 21.9881 13.7549 21.563 13.5845C21.138 13.401 20.6931 13.2962 20.2282 13.27C19.6305 13.2438 19.0859 13.2962 18.5945 13.4273C18.1031 13.5583 17.7046 13.7811 17.3991 14.0957C17.1069 14.4102 16.9608 14.8296 16.9608 15.3539C16.9608 15.8519 17.1601 16.2254 17.5585 16.4744C17.957 16.7103 18.4351 16.8938 18.993 17.0249C19.5641 17.156 20.1087 17.3001 20.6267 17.4574C21.7955 17.8375 22.8912 18.3027 23.9139 18.8532C24.9499 19.4037 25.7801 20.0786 26.4043 20.8781C27.0286 21.6776 27.3274 22.6343 27.3009 23.7483C27.3009 25.0196 26.9157 26.1337 26.1453 27.0904C25.375 28.0341 24.3788 28.7549 23.1569 29.2529C21.9482 29.751 20.6532 29.9476 19.2719 29.8427Z" fill="url(#paint0_linear_81_924)"/>
<path d="M37.173 30C35.3401 30 33.6666 29.5347 32.1524 28.6042C30.6515 27.6736 29.4495 26.4286 28.5463 24.8689C27.6565 23.2962 27.2115 21.5596 27.2115 19.6592C27.2115 18.2176 27.4705 16.8742 27.9885 15.6291C28.5065 14.3709 29.2171 13.27 30.1203 12.3263C31.0367 11.3696 32.0993 10.6225 33.3079 10.0852C34.5166 9.54783 35.805 9.27916 37.173 9.27916C39.0059 9.27916 40.6728 9.74443 42.1737 10.675C43.6878 11.6055 44.8898 12.8571 45.7797 14.4299C46.6829 16.0026 47.1345 17.7457 47.1345 19.6592C47.1345 21.0878 46.8755 22.4246 46.3575 23.6697C45.8395 24.9148 45.1223 26.0157 44.2058 26.9725C43.3026 27.9161 42.2467 28.6566 41.0381 29.194C39.8427 29.7313 38.5543 30 37.173 30ZM37.173 25.2031C38.1426 25.2031 39.0126 24.9476 39.7829 24.4364C40.5533 23.9253 41.1576 23.2503 41.5959 22.4115C42.0475 21.5727 42.2733 20.6553 42.2733 19.6592C42.2733 18.6369 42.0408 17.7064 41.576 16.8676C41.1244 16.0157 40.5068 15.3408 39.7231 14.8427C38.9528 14.3316 38.1027 14.076 37.173 14.076C36.2167 14.076 35.3534 14.3316 34.583 14.8427C33.8127 15.3539 33.2017 16.0354 32.7501 16.8873C32.2985 17.7392 32.0727 18.6632 32.0727 19.6592C32.0727 20.6946 32.3052 21.6317 32.77 22.4705C33.2349 23.3093 33.8525 23.9777 34.6229 24.4757C35.4065 24.9607 36.2565 25.2031 37.173 25.2031Z" fill="url(#paint1_linear_81_924)"/>
<path d="M47.0193 22.2149V9.82961H51.8805V20.9567C51.8805 21.73 52.0731 22.4377 52.4583 23.0799C52.8435 23.709 53.3548 24.2136 53.9924 24.5937C54.6432 24.9607 55.3538 25.1442 56.1241 25.1442C56.921 25.1442 57.6383 24.9607 58.2758 24.5937C58.9133 24.2136 59.4247 23.709 59.8099 23.0799C60.195 22.4377 60.3876 21.73 60.3876 20.9567V9.82961H65.2488L65.2688 29.4888H60.4076L60.3876 27.6999C59.697 28.4076 58.8801 28.9711 57.9371 29.3905C56.9941 29.7968 55.9847 30 54.9088 30C53.4611 30 52.1395 29.6527 50.9441 28.958C49.7488 28.2503 48.7925 27.3132 48.0752 26.1468C47.3713 24.9672 47.0193 23.6566 47.0193 22.2149Z" fill="url(#paint2_linear_81_924)"/>
<path d="M67.3812 29.4888V0H72.2424V29.4888H67.3812Z" fill="url(#paint3_linear_81_924)"/>
<path d="M73.637 30V10.3407H78.4982V12.0904C79.1756 11.3827 79.9858 10.8257 80.9288 10.4194C81.8718 9.99998 82.8879 9.79028 83.977 9.79028C85.3583 9.79028 86.6267 10.1114 87.7823 10.7536C88.9511 11.3958 89.8808 12.2542 90.5715 13.3289C91.2754 12.2542 92.2052 11.3958 93.3607 10.7536C94.5162 10.1114 95.7847 9.79028 97.166 9.79028C98.627 9.79028 99.9486 10.1441 101.131 10.8519C102.326 11.5465 103.276 12.4836 103.98 13.6632C104.697 14.8296 105.056 16.1337 105.056 17.5753V30H100.194V18.8532C100.194 18.093 100.002 17.3984 99.6165 16.7693C99.2446 16.1271 98.7399 15.616 98.1024 15.2359C97.4781 14.8427 96.7742 14.6461 95.9906 14.6461C95.2069 14.6461 94.4963 14.8362 93.8588 15.2162C93.2345 15.5832 92.7298 16.0812 92.3446 16.7103C91.9595 17.3394 91.7669 18.0537 91.7669 18.8532V30H86.9057V18.8532C86.9057 18.0537 86.7197 17.3394 86.3478 16.7103C85.9759 16.0812 85.4712 15.5832 84.8337 15.2162C84.1961 14.8362 83.4856 14.6461 82.7019 14.6461C81.9316 14.6461 81.2276 14.8427 80.5901 15.2359C79.9525 15.616 79.4412 16.1271 79.056 16.7693C78.6841 17.3984 78.4982 18.093 78.4982 18.8532V30H73.637Z" fill="url(#paint4_linear_81_924)"/>
<path fill-rule="evenodd" clip-rule="evenodd" d="M106.45 8.37488H110.933V11.9598C112.505 10.9364 114.388 10.3408 116.412 10.3408C121.913 10.3408 126.373 14.7417 126.373 20.1704C126.373 20.1754 126.373 20.1805 126.373 20.1855V30H121.891V28.3811C120.319 29.4044 118.436 30 116.412 30C110.91 30 106.45 25.5992 106.45 20.1704V8.37488ZM121.891 20.1704L121.891 20.1704V20.182C121.884 23.1625 119.434 25.5767 116.412 25.5767C113.386 25.5767 110.933 23.1562 110.933 20.1704C110.933 17.1846 113.386 14.7641 116.412 14.7641C119.438 14.7641 121.891 17.1846 121.891 20.1704Z" fill="url(#paint5_linear_81_924)"/>
<path d="M139.443 15.1376H135.578V30H130.716V15.1376H127.768V10.3407H130.716V4.16774H135.578V10.3407H139.443V15.1376Z" fill="url(#paint6_linear_81_924)"/>
<path d="M140.741 10.3407H145.602V30H140.741V10.3407ZM143.212 7.8047C142.494 7.8047 141.89 7.57534 141.399 7.11663C140.907 6.64481 140.661 6.05503 140.661 5.3473C140.661 4.65267 140.907 4.06945 141.399 3.59762C141.89 3.1258 142.488 2.88989 143.192 2.88989C143.896 2.88989 144.487 3.1258 144.965 3.59762C145.456 4.06945 145.702 4.65267 145.702 5.3473C145.702 6.05503 145.463 6.64481 144.985 7.11663C144.507 7.57534 143.916 7.8047 143.212 7.8047Z" fill="url(#paint7_linear_81_924)"/>
<path d="M157.058 30C155.225 30 153.552 29.5347 152.037 28.6042C150.537 27.6737 149.335 26.422 148.431 24.8493C147.542 23.2765 147.097 21.54 147.097 19.6396C147.097 18.211 147.356 16.8742 147.874 15.6291C148.392 14.3709 149.102 13.27 150.005 12.3264C150.922 11.3696 151.984 10.6226 153.193 10.0852C154.402 9.54785 155.69 9.27917 157.058 9.27917C158.612 9.27917 160.033 9.60683 161.322 10.2621C162.623 10.9043 163.726 11.789 164.629 12.9161C165.532 14.0433 166.189 15.3277 166.601 16.7693C167.013 18.211 167.106 19.7182 166.88 21.291H152.316C152.502 22.0249 152.808 22.6868 153.233 23.2765C153.658 23.8532 154.196 24.3185 154.847 24.6723C155.497 25.0131 156.235 25.19 157.058 25.2031C157.908 25.2163 158.678 25.0197 159.369 24.6134C160.073 24.194 160.657 23.6304 161.122 22.9227L166.083 24.0629C165.273 25.806 164.064 27.2346 162.457 28.3486C160.85 29.4495 159.05 30 157.058 30ZM152.157 17.6933H161.959C161.813 16.907 161.501 16.1992 161.023 15.5701C160.558 14.9279 159.98 14.4168 159.289 14.0367C158.599 13.6566 157.855 13.4666 157.058 13.4666C156.261 13.4666 155.524 13.6566 154.847 14.0367C154.169 14.4037 153.591 14.9083 153.113 15.5505C152.648 16.1796 152.33 16.8938 152.157 17.6933Z" fill="url(#paint8_linear_81_924)"/>
<defs>
<linearGradient id="paint0_linear_81_924" x1="42.1212" y1="0" x2="42.1212" y2="30" gradientUnits="userSpaceOnUse">
<stop stop-color="#3A3F4A"/>
<stop offset="1" stop-color="#1C1F25"/>
</linearGradient>
<linearGradient id="paint1_linear_81_924" x1="42.1212" y1="0" x2="42.1212" y2="30" gradientUnits="userSpaceOnUse">
<stop stop-color="#3A3F4A"/>
<stop offset="1" stop-color="#1C1F25"/>
</linearGradient>
<linearGradient id="paint2_linear_81_924" x1="42.1212" y1="0" x2="42.1212" y2="30" gradientUnits="userSpaceOnUse">
<stop stop-color="#3A3F4A"/>
<stop offset="1" stop-color="#1C1F25"/>
</linearGradient>
<linearGradient id="paint3_linear_81_924" x1="42.1212" y1="0" x2="42.1212" y2="30" gradientUnits="userSpaceOnUse">
<stop stop-color="#3A3F4A"/>
<stop offset="1" stop-color="#1C1F25"/>
</linearGradient>
<linearGradient id="paint4_linear_81_924" x1="89.3462" y1="9.79028" x2="89.3462" y2="30" gradientUnits="userSpaceOnUse">
<stop stop-color="#779CE6"/>
<stop offset="1" stop-color="#5784DD"/>
</linearGradient>
<linearGradient id="paint5_linear_81_924" x1="116.412" y1="8.37488" x2="116.412" y2="30" gradientUnits="userSpaceOnUse">
<stop stop-color="#779CE6"/>
<stop offset="1" stop-color="#5784DD"/>
</linearGradient>
<linearGradient id="paint6_linear_81_924" x1="136.735" y1="2.88989" x2="136.735" y2="30" gradientUnits="userSpaceOnUse">
<stop stop-color="#779CE6"/>
<stop offset="1" stop-color="#5784DD"/>
</linearGradient>
<linearGradient id="paint7_linear_81_924" x1="136.735" y1="2.88989" x2="136.735" y2="30" gradientUnits="userSpaceOnUse">
<stop stop-color="#779CE6"/>
<stop offset="1" stop-color="#5784DD"/>
</linearGradient>
<linearGradient id="paint8_linear_81_924" x1="157.048" y1="9.27917" x2="157.048" y2="30" gradientUnits="userSpaceOnUse">
<stop stop-color="#3A3F4A"/>
<stop offset="1" stop-color="#1C1F25"/>
</linearGradient>
</defs>
</svg>
