<svg width="360" height="241" viewBox="0 0 360 241" fill="none" xmlns="http://www.w3.org/2000/svg">
<g filter="url(#filter0_bf_74_92)">
<rect y="40" width="360" height="161" fill="#EEF1F7" fill-opacity="0.5"/>
</g>
<path d="M74.9078 140.764C73.3538 140.666 71.8497 140.361 70.3953 139.85C68.9608 139.319 67.6858 138.602 66.5701 137.697C65.4544 136.793 64.5977 135.712 64 134.453L70.1562 131.858C70.3953 132.252 70.7838 132.674 71.3217 133.126C71.8596 133.559 72.4972 133.923 73.2343 134.218C73.9914 134.512 74.8182 134.66 75.7147 134.66C76.4718 134.66 77.189 134.562 77.8664 134.365C78.5637 134.149 79.1215 133.824 79.5399 133.392C79.9782 132.959 80.1974 132.399 80.1974 131.711C80.1974 130.984 79.9384 130.423 79.4204 130.03C78.9223 129.617 78.2848 129.313 77.5078 129.116C76.7507 128.9 76.0136 128.703 75.2963 128.526C73.4036 128.153 71.6405 127.573 70.0068 126.786C68.393 126 67.0881 124.988 66.0919 123.749C65.1157 122.491 64.6276 120.977 64.6276 119.208C64.6276 117.261 65.1456 115.581 66.1816 114.165C67.2375 112.75 68.6022 111.659 70.2757 110.892C71.9692 110.125 73.7921 109.742 75.7446 109.742C78.1154 109.742 80.287 110.233 82.2594 111.216C84.2517 112.18 85.8256 113.546 86.9812 115.315L81.2135 118.677C80.9345 118.205 80.546 117.773 80.048 117.379C79.5499 116.967 78.9821 116.632 78.3445 116.377C77.707 116.102 77.0396 115.944 76.3423 115.905C75.4458 115.866 74.6289 115.944 73.8918 116.141C73.1546 116.337 72.5569 116.672 72.0987 117.143C71.6604 117.615 71.4412 118.244 71.4412 119.031C71.4412 119.778 71.7401 120.338 72.3378 120.712C72.9355 121.066 73.6527 121.341 74.4895 121.537C75.3461 121.734 76.163 121.95 76.94 122.186C78.6932 122.756 80.3368 123.454 81.8709 124.28C83.4249 125.105 84.6701 126.118 85.6065 127.317C86.5429 128.516 86.9911 129.951 86.9513 131.623C86.9513 133.529 86.3735 135.2 85.218 136.636C84.0624 138.051 82.5682 139.132 80.7353 139.879C78.9223 140.626 76.9798 140.921 74.9078 140.764Z" fill="url(#paint0_linear_74_92)"/>
<path d="M101.759 141C99.0101 141 96.4998 140.302 94.2286 138.906C91.9773 137.51 90.1743 135.643 88.8195 133.303C87.4847 130.944 86.8173 128.339 86.8173 125.489C86.8173 123.326 87.2058 121.311 87.9828 119.444C88.7598 117.556 89.8256 115.905 91.1804 114.49C92.5551 113.054 94.1489 111.934 95.9619 111.128C97.7749 110.322 99.7074 109.919 101.759 109.919C104.509 109.919 107.009 110.617 109.261 112.012C111.532 113.408 113.335 115.286 114.67 117.645C116.024 120.004 116.702 122.619 116.702 125.489C116.702 127.632 116.313 129.637 115.536 131.505C114.759 133.372 113.683 135.024 112.309 136.459C110.954 137.874 109.37 138.985 107.557 139.791C105.764 140.597 103.831 141 101.759 141ZM101.759 133.805C103.214 133.805 104.519 133.421 105.674 132.655C106.83 131.888 107.736 130.875 108.394 129.617C109.071 128.359 109.41 126.983 109.41 125.489C109.41 123.955 109.061 122.56 108.364 121.301C107.687 120.024 106.76 119.011 105.585 118.264C104.429 117.497 103.154 117.114 101.759 117.114C100.325 117.114 99.03 117.497 97.8745 118.264C96.719 119.031 95.8025 120.053 95.1251 121.331C94.4478 122.609 94.1091 123.995 94.1091 125.489C94.1091 127.042 94.4577 128.448 95.155 129.706C95.8523 130.964 96.7788 131.967 97.9343 132.714C99.1097 133.441 100.385 133.805 101.759 133.805Z" fill="url(#paint1_linear_74_92)"/>
<path d="M116.529 129.322V110.744H123.821V127.435C123.821 128.595 124.11 129.657 124.687 130.62C125.265 131.564 126.032 132.32 126.989 132.891C127.965 133.441 129.031 133.716 130.186 133.716C131.382 133.716 132.457 133.441 133.414 132.891C134.37 132.32 135.137 131.564 135.715 130.62C136.293 129.657 136.581 128.595 136.581 127.435V110.744H143.873L143.903 140.233H136.611L136.581 137.55C135.545 138.611 134.32 139.457 132.906 140.086C131.491 140.695 129.977 141 128.363 141C126.192 141 124.209 140.479 122.416 139.437C120.623 138.375 119.189 136.97 118.113 135.22C117.057 133.451 116.529 131.485 116.529 129.322Z" fill="url(#paint2_linear_74_92)"/>
<path d="M147.072 140.233V96H154.364V140.233H147.072Z" fill="url(#paint3_linear_74_92)"/>
<path d="M156.455 141V111.511H163.747V114.136C164.763 113.074 165.978 112.239 167.393 111.629C168.807 111 170.331 110.685 171.965 110.685C174.037 110.685 175.94 111.167 177.673 112.13C179.426 113.094 180.821 114.381 181.857 115.993C182.913 114.381 184.307 113.094 186.041 112.13C187.774 111.167 189.677 110.685 191.749 110.685C193.94 110.685 195.923 111.216 197.696 112.278C199.489 113.32 200.913 114.725 201.969 116.495C203.045 118.244 203.583 120.2 203.583 122.363V141H196.291V124.28C196.291 123.14 196.002 122.098 195.424 121.154C194.867 120.191 194.11 119.424 193.153 118.854C192.217 118.264 191.161 117.969 189.985 117.969C188.81 117.969 187.744 118.254 186.788 118.824C185.851 119.375 185.094 120.122 184.517 121.065C183.939 122.009 183.65 123.081 183.65 124.28V141H176.358V124.28C176.358 123.081 176.079 122.009 175.521 121.065C174.964 120.122 174.206 119.375 173.25 118.824C172.294 118.254 171.228 117.969 170.053 117.969C168.897 117.969 167.841 118.264 166.885 118.854C165.928 119.424 165.161 120.191 164.584 121.154C164.026 122.098 163.747 123.14 163.747 124.28V141H156.455Z" fill="url(#paint4_linear_74_92)"/>
<path fill-rule="evenodd" clip-rule="evenodd" d="M205.676 108.562H212.4V113.94C214.758 112.405 217.582 111.511 220.618 111.511C228.87 111.511 235.56 118.112 235.56 126.256C235.56 126.263 235.56 126.27 235.56 126.277V141H228.836V138.572C226.479 140.107 223.654 141 220.618 141C212.366 141 205.676 134.399 205.676 126.256V108.562ZM228.836 126.256L228.836 126.256V126.271C228.828 130.743 225.151 134.365 220.618 134.365C216.079 134.365 212.4 130.734 212.4 126.256C212.4 121.777 216.079 118.146 220.618 118.146C225.157 118.146 228.836 121.777 228.836 126.256Z" fill="url(#paint5_linear_74_92)"/>
<path d="M255.164 118.706H249.366V141H242.074V118.706H237.651V111.511H242.074V102.252H249.366V111.511H255.164V118.706Z" fill="url(#paint6_linear_74_92)"/>
<path d="M257.111 111.511H264.403V141H257.111V111.511ZM260.817 107.707C259.741 107.707 258.835 107.363 258.097 106.675C257.36 105.967 256.992 105.083 256.992 104.021C256.992 102.979 257.36 102.104 258.097 101.396C258.835 100.689 259.731 100.335 260.787 100.335C261.843 100.335 262.73 100.689 263.447 101.396C264.184 102.104 264.553 102.979 264.553 104.021C264.553 105.083 264.194 105.967 263.477 106.675C262.759 107.363 261.873 107.707 260.817 107.707Z" fill="url(#paint7_linear_74_92)"/>
<path d="M281.587 141C278.837 141 276.327 140.302 274.056 138.906C271.805 137.51 270.002 135.633 268.647 133.274C267.312 130.915 266.645 128.31 266.645 125.459C266.645 123.316 267.033 121.311 267.81 119.444C268.587 117.556 269.653 115.905 271.008 114.489C272.382 113.054 273.976 111.934 275.789 111.128C277.602 110.322 279.535 109.919 281.587 109.919C283.918 109.919 286.05 110.41 287.982 111.393C289.934 112.356 291.588 113.683 292.943 115.374C294.298 117.065 295.284 118.991 295.901 121.154C296.519 123.316 296.659 125.577 296.32 127.936H274.474C274.753 129.037 275.211 130.03 275.849 130.915C276.486 131.78 277.293 132.478 278.27 133.008C279.246 133.52 280.352 133.785 281.587 133.805C282.862 133.824 284.017 133.529 285.053 132.92C286.109 132.291 286.986 131.446 287.683 130.384L295.124 132.094C293.909 134.709 292.096 136.852 289.685 138.523C287.275 140.174 284.575 141 281.587 141ZM274.235 122.54H288.938C288.719 121.36 288.251 120.299 287.534 119.355C286.836 118.392 285.97 117.625 284.934 117.055C283.898 116.485 282.782 116.2 281.587 116.2C280.391 116.2 279.286 116.485 278.27 117.055C277.254 117.605 276.387 118.362 275.67 119.326C274.972 120.269 274.494 121.341 274.235 122.54Z" fill="url(#paint8_linear_74_92)"/>
<defs>
<filter id="filter0_bf_74_92" x="-40" y="0" width="440" height="241" filterUnits="userSpaceOnUse" color-interpolation-filters="sRGB">
<feFlood flood-opacity="0" result="BackgroundImageFix"/>
<feGaussianBlur in="BackgroundImageFix" stdDeviation="2"/>
<feComposite in2="SourceAlpha" operator="in" result="effect1_backgroundBlur_74_92"/>
<feBlend mode="normal" in="SourceGraphic" in2="effect1_backgroundBlur_74_92" result="shape"/>
<feGaussianBlur stdDeviation="20" result="effect2_foregroundBlur_74_92"/>
</filter>
<linearGradient id="paint0_linear_74_92" x1="109.182" y1="96" x2="109.182" y2="141" gradientUnits="userSpaceOnUse">
<stop stop-color="#3A3F4A"/>
<stop offset="1" stop-color="#1C1F25"/>
</linearGradient>
<linearGradient id="paint1_linear_74_92" x1="109.182" y1="96" x2="109.182" y2="141" gradientUnits="userSpaceOnUse">
<stop stop-color="#3A3F4A"/>
<stop offset="1" stop-color="#1C1F25"/>
</linearGradient>
<linearGradient id="paint2_linear_74_92" x1="109.182" y1="96" x2="109.182" y2="141" gradientUnits="userSpaceOnUse">
<stop stop-color="#3A3F4A"/>
<stop offset="1" stop-color="#1C1F25"/>
</linearGradient>
<linearGradient id="paint3_linear_74_92" x1="109.182" y1="96" x2="109.182" y2="141" gradientUnits="userSpaceOnUse">
<stop stop-color="#3A3F4A"/>
<stop offset="1" stop-color="#1C1F25"/>
</linearGradient>
<linearGradient id="paint4_linear_74_92" x1="180.019" y1="110.685" x2="180.019" y2="141" gradientUnits="userSpaceOnUse">
<stop stop-color="#779CE6"/>
<stop offset="1" stop-color="#5784DD"/>
</linearGradient>
<linearGradient id="paint5_linear_74_92" x1="220.618" y1="108.562" x2="220.618" y2="141" gradientUnits="userSpaceOnUse">
<stop stop-color="#779CE6"/>
<stop offset="1" stop-color="#5784DD"/>
</linearGradient>
<linearGradient id="paint6_linear_74_92" x1="251.102" y1="100.335" x2="251.102" y2="141" gradientUnits="userSpaceOnUse">
<stop stop-color="#779CE6"/>
<stop offset="1" stop-color="#5784DD"/>
</linearGradient>
<linearGradient id="paint7_linear_74_92" x1="251.102" y1="100.335" x2="251.102" y2="141" gradientUnits="userSpaceOnUse">
<stop stop-color="#779CE6"/>
<stop offset="1" stop-color="#5784DD"/>
</linearGradient>
<linearGradient id="paint8_linear_74_92" x1="281.572" y1="109.919" x2="281.572" y2="141" gradientUnits="userSpaceOnUse">
<stop stop-color="#3A3F4A"/>
<stop offset="1" stop-color="#1C1F25"/>
</linearGradient>
</defs>
</svg>
