<svg width="21" height="20" viewBox="0 0 21 20" fill="none" xmlns="http://www.w3.org/2000/svg">
<path d="M14.2649 13.7509C14.4107 13.6376 14.5432 13.5051 14.8074 13.2409L18.1049 9.94255C18.1849 9.86339 18.1482 9.72589 18.0424 9.68839C17.5264 9.50855 17.058 9.21393 16.6724 8.82672C16.2852 8.44115 15.9906 7.97271 15.8107 7.45672C15.7732 7.35089 15.6357 7.31422 15.5565 7.39422L12.2574 10.6917C11.9932 10.9559 11.8607 11.0884 11.7474 11.2342C11.6132 11.4067 11.4974 11.5926 11.404 11.7892C11.3249 11.9559 11.2657 12.1342 11.1474 12.4892L10.994 12.9476L10.7507 13.6767L10.5232 14.3601C10.4948 14.4457 10.4908 14.5375 10.5117 14.6253C10.5325 14.7131 10.5773 14.7934 10.6411 14.8572C10.7049 14.921 10.7851 14.9658 10.8729 14.9866C10.9607 15.0074 11.0526 15.0034 11.1382 14.9751L11.8215 14.7476L12.5507 14.5042L13.009 14.3509C13.364 14.2326 13.5424 14.1742 13.709 14.0942C13.9057 14.0001 14.0932 13.8859 14.2649 13.7509ZM19.1382 8.91005C19.4763 8.5719 19.6661 8.11331 19.666 7.63517C19.666 7.15704 19.476 6.69851 19.1378 6.36047C18.7996 6.02243 18.3411 5.83256 17.8629 5.83264C17.3848 5.83272 16.9263 6.02273 16.5882 6.36089L16.4832 6.46755C16.4328 6.51729 16.3952 6.57856 16.3737 6.64607C16.3522 6.71358 16.3475 6.7853 16.3599 6.85505C16.3765 6.94422 16.4057 7.07589 16.4599 7.23172C16.5682 7.54422 16.7732 7.95422 17.159 8.34005C17.4707 8.65416 17.8497 8.89325 18.2674 9.03922C18.424 9.09339 18.5549 9.12255 18.644 9.13922C18.7138 9.15157 18.7855 9.14679 18.853 9.12531C18.9205 9.10383 18.9818 9.06628 19.0315 9.01589L19.1382 8.91005Z" fill="black"/>
<path fill-rule="evenodd" clip-rule="evenodd" d="M3.97569 2.64329C2.99902 3.61913 2.99902 5.19079 2.99902 8.33329V11.6666C2.99902 14.8091 2.99902 16.3808 3.97569 17.3566C4.95152 18.3333 6.52319 18.3333 9.66569 18.3333H11.3324C14.4749 18.3333 16.0465 18.3333 17.0224 17.3566C17.9832 16.3966 17.999 14.86 17.999 11.8166L15.6507 14.165C15.4257 14.39 15.2415 14.5741 15.034 14.7366C14.7902 14.9267 14.5264 15.0896 14.2474 15.2225C13.9915 15.3372 13.7288 15.436 13.4607 15.5183L11.534 16.1608C11.2282 16.2628 10.9 16.2776 10.5862 16.2035C10.2724 16.1295 9.98542 15.9695 9.75745 15.7415C9.52947 15.5136 9.36949 15.2266 9.29544 14.9128C9.22139 14.599 9.23619 14.2708 9.33819 13.965L9.56652 13.2816L9.96236 12.0933L9.97986 12.0383C10.0807 11.7366 10.1632 11.49 10.2765 11.2516C10.4099 10.9725 10.5724 10.7091 10.7624 10.4658C10.9249 10.2575 11.109 10.0741 11.334 9.84913L14.6724 6.50996L15.599 5.58329L15.7049 5.47746C15.9881 5.19346 16.3246 4.96825 16.6952 4.8148C17.0657 4.66134 17.463 4.58267 17.864 4.58329C17.7382 3.72496 17.494 3.11413 17.0224 2.64329C16.0465 1.66663 14.4749 1.66663 11.3324 1.66663H9.66569C6.52319 1.66663 4.95152 1.66663 3.97569 2.64329ZM6.54069 7.49996C6.54069 7.3342 6.60654 7.17523 6.72375 7.05802C6.84096 6.94081 6.99993 6.87496 7.16569 6.87496H12.5824C12.7481 6.87496 12.9071 6.94081 13.0243 7.05802C13.1415 7.17523 13.2074 7.3342 13.2074 7.49996C13.2074 7.66572 13.1415 7.82469 13.0243 7.9419C12.9071 8.05911 12.7481 8.12496 12.5824 8.12496H7.16569C6.99993 8.12496 6.84096 8.05911 6.72375 7.9419C6.60654 7.82469 6.54069 7.66572 6.54069 7.49996ZM6.54069 10.8333C6.54069 10.6675 6.60654 10.5086 6.72375 10.3914C6.84096 10.2741 6.99993 10.2083 7.16569 10.2083H9.24902C9.41478 10.2083 9.57375 10.2741 9.69096 10.3914C9.80817 10.5086 9.87402 10.6675 9.87402 10.8333C9.87402 10.9991 9.80817 11.158 9.69096 11.2752C9.57375 11.3924 9.41478 11.4583 9.24902 11.4583H7.16569C6.99993 11.4583 6.84096 11.3924 6.72375 11.2752C6.60654 11.158 6.54069 10.9991 6.54069 10.8333ZM6.54069 14.1666C6.54069 14.0009 6.60654 13.8419 6.72375 13.7247C6.84096 13.6075 6.99993 13.5416 7.16569 13.5416H8.41569C8.58145 13.5416 8.74042 13.6075 8.85763 13.7247C8.97484 13.8419 9.04069 14.0009 9.04069 14.1666C9.04069 14.3324 8.97484 14.4914 8.85763 14.6086C8.74042 14.7258 8.58145 14.7916 8.41569 14.7916H7.16569C6.99993 14.7916 6.84096 14.7258 6.72375 14.6086C6.60654 14.4914 6.54069 14.3324 6.54069 14.1666Z" fill="black"/>
</svg>
