<svg width="19" height="19" viewBox="0 0 19 19" fill="none" xmlns="http://www.w3.org/2000/svg">
<path d="M16 6.83333C15.3375 3.5125 12.2608 1 8.56667 1C4.38667 1 1 4.2125 1 8.175C1 10.0792 1.78167 11.8083 3.0575 13.0917C3.3375 13.375 3.525 13.7608 3.44917 14.1583C3.32596 14.8047 3.04356 15.4102 2.6275 15.92C3.71788 16.1176 4.84302 15.9442 5.82333 15.4275C6.16667 15.2458 6.33917 15.1558 6.46 15.1375C6.545 15.1242 6.65583 15.1367 6.83333 15.1667" stroke="black" stroke-width="1.25" stroke-linecap="round" stroke-linejoin="round"/>
<path d="M8.5 12.885C8.5 15.3058 10.5525 17.2692 13.0833 17.2692C13.3817 17.2692 13.6772 17.2419 13.97 17.1875C14.1808 17.1483 14.2858 17.1283 14.3592 17.1392C14.4325 17.1508 14.5367 17.2058 14.745 17.3167C15.3333 17.63 16.02 17.7408 16.6808 17.6175C16.428 17.3058 16.2567 16.9361 16.1825 16.5417C16.1367 16.2983 16.25 16.0625 16.4208 15.89C17.2166 15.0922 17.6645 14.0119 17.6667 12.885C17.6667 10.4633 15.6142 8.5 13.0833 8.5C10.5525 8.5 8.5 10.4633 8.5 12.885Z" stroke="black" stroke-width="1.25" stroke-linecap="round" stroke-linejoin="round"/>
</svg>
