<svg width="21" height="20" viewBox="0 0 21 20" fill="none" xmlns="http://www.w3.org/2000/svg">
<path fill-rule="evenodd" clip-rule="evenodd" d="M0.5 2.14286C0.5 1.57454 0.725765 1.02949 1.12763 0.627628C1.52949 0.225765 2.07454 0 2.64286 0H12.6429C13.2112 0 13.7562 0.225765 14.1581 0.627628C14.56 1.02949 14.7857 1.57454 14.7857 2.14286V4.91286C14.2061 5.37714 13.83 6.04888 13.7371 6.78571H8.71429C8.29218 6.78571 7.87421 6.86885 7.48423 7.03039C7.09426 7.19192 6.73992 7.42868 6.44144 7.72716C6.14297 8.02563 5.90621 8.37997 5.74467 8.76995C5.58314 9.15992 5.5 9.57789 5.5 10C5.5 10.4221 5.58314 10.8401 5.74467 11.2301C5.90621 11.62 6.14297 11.9744 6.44144 12.2728C6.73992 12.5713 7.09426 12.8081 7.48423 12.9696C7.87421 13.1311 8.29218 13.2143 8.71429 13.2143H13.7371C13.83 13.9511 14.2061 14.6229 14.7857 15.0871V17.8571C14.7857 18.4255 14.56 18.9705 14.1581 19.3724C13.7562 19.7742 13.2112 20 12.6429 20H2.64286C2.07454 20 1.52949 19.7742 1.12763 19.3724C0.725765 18.9705 0.5 18.4255 0.5 17.8571V2.14286ZM16.1614 6.15286C15.9656 6.23396 15.7983 6.3713 15.6805 6.54752C15.5628 6.72375 15.5 6.93092 15.5 7.14286V8.57143H8.71429C8.33541 8.57143 7.97204 8.72194 7.70413 8.98985C7.43622 9.25776 7.28571 9.62112 7.28571 10C7.28571 10.3789 7.43622 10.7422 7.70413 11.0102C7.97204 11.2781 8.33541 11.4286 8.71429 11.4286H15.5V12.8571C15.5002 13.0689 15.5631 13.2759 15.6809 13.4519C15.7986 13.6279 15.9659 13.7651 16.1615 13.8461C16.3572 13.9271 16.5725 13.9484 16.7802 13.9071C16.9879 13.8658 17.1787 13.7639 17.3286 13.6143L20.1857 10.7571C20.3864 10.5562 20.4991 10.2839 20.4991 10C20.4991 9.71607 20.3864 9.44375 20.1857 9.24286L17.3286 6.38571C17.1788 6.23587 16.988 6.13377 16.7803 6.09233C16.5726 6.05088 16.3572 6.07194 16.1614 6.15286Z" fill="black"/>
</svg>
