<svg width="16" height="20" viewBox="0 0 16 20" fill="none" xmlns="http://www.w3.org/2000/svg">
<path d="M3.38999 14.5391C2.00145 13.5599 0.960735 12.164 0.418622 10.5537C-0.123492 8.94346 -0.138846 7.2024 0.374786 5.58282C0.888417 3.96324 1.90435 2.54925 3.27541 1.54571C4.64646 0.542176 6.30141 0.0012207 8.00049 0.0012207C9.69956 0.0012207 11.3545 0.542176 12.7256 1.54571C14.0966 2.54925 15.1126 3.96324 15.6262 5.58282C16.1398 7.2024 16.1245 8.94346 15.5824 10.5537C15.0402 12.164 13.9995 13.5599 12.611 14.5391L14.694 19.2991C14.7274 19.3752 14.7413 19.4586 14.7344 19.5415C14.7275 19.6244 14.7001 19.7043 14.6545 19.774C14.6089 19.8436 14.5467 19.9007 14.4734 19.9402C14.4001 19.9797 14.3182 20.0003 14.235 20.0001H1.76499C1.6819 20.0002 1.6001 19.9796 1.52697 19.9402C1.45383 19.9007 1.39168 19.8437 1.34612 19.7742C1.30056 19.7047 1.27303 19.625 1.26603 19.5422C1.25902 19.4594 1.27275 19.3762 1.30599 19.3001L3.38999 14.5391ZM4.11899 8.97006C4.33654 9.83455 4.83649 10.6017 5.53956 11.1497C6.24262 11.6978 7.10855 11.9954 7.99999 11.9954C8.89143 11.9954 9.75735 11.6978 10.4604 11.1497C11.1635 10.6017 11.6634 9.83455 11.881 8.97006L9.94099 8.48506C9.83333 8.91842 9.58374 9.30329 9.23198 9.57835C8.88022 9.85342 8.44652 10.0029 7.99999 10.0029C7.55345 10.0029 7.11976 9.85342 6.768 9.57835C6.41624 9.30329 6.16665 8.91842 6.05899 8.48506L4.11899 8.97006Z" fill="#A4AEC2"/>
</svg>
