<svg width="18" height="19" viewBox="0 0 18 19" fill="none" xmlns="http://www.w3.org/2000/svg">
<path d="M17.3332 13.1683C17.3328 14.3079 16.9433 15.4133 16.229 16.3013C15.5148 17.1894 14.5187 17.8069 13.4057 18.0516L12.874 16.4566C13.3609 16.3764 13.8239 16.1892 14.2297 15.9085C14.6355 15.6278 14.9739 15.2606 15.2207 14.8333H13.1665C12.7245 14.8333 12.3006 14.6577 11.988 14.3451C11.6754 14.0326 11.4998 13.6087 11.4998 13.1666V9.83329C11.4998 9.39127 11.6754 8.96734 11.988 8.65478C12.3006 8.34222 12.7245 8.16663 13.1665 8.16663H15.6148C15.4115 6.55571 14.6273 5.07435 13.4094 4.00052C12.1914 2.92669 10.6235 2.33419 8.99984 2.33419C7.37613 2.33419 5.80823 2.92669 4.59032 4.00052C3.3724 5.07435 2.5882 6.55571 2.38484 8.16663H4.83317C5.2752 8.16663 5.69912 8.34222 6.01168 8.65478C6.32424 8.96734 6.49984 9.39127 6.49984 9.83329V13.1666C6.49984 13.6087 6.32424 14.0326 6.01168 14.3451C5.69912 14.6577 5.2752 14.8333 4.83317 14.8333H2.33317C1.89114 14.8333 1.46722 14.6577 1.15466 14.3451C0.842099 14.0326 0.666504 13.6087 0.666504 13.1666V8.99996C0.666504 4.39746 4.39734 0.666626 8.99984 0.666626C13.6023 0.666626 17.3332 4.39746 17.3332 8.99996V13.1683Z" fill="#61A6FA"/>
</svg>
