<svg width="20" height="20" viewBox="0 0 20 20" fill="none" xmlns="http://www.w3.org/2000/svg">
<path d="M7.23848 3.33333L9.41098 1.16083C9.56725 1.0046 9.77918 0.91684 10.0001 0.91684C10.2211 0.91684 10.433 1.0046 10.5893 1.16083L12.7618 3.33333H15.8335C16.0545 3.33333 16.2665 3.42113 16.4227 3.57741C16.579 3.73369 16.6668 3.94565 16.6668 4.16666V7.23833L18.8393 9.41083C18.9955 9.5671 19.0833 9.77902 19.0833 9.99999C19.0833 10.221 18.9955 10.4329 18.8393 10.5892L16.6668 12.7617V15.8333C16.6668 16.0543 16.579 16.2663 16.4227 16.4226C16.2665 16.5789 16.0545 16.6667 15.8335 16.6667H12.7618L10.5893 18.8392C10.433 18.9954 10.2211 19.0831 10.0001 19.0831C9.77918 19.0831 9.56725 18.9954 9.41098 18.8392L7.23848 16.6667H4.16681C3.9458 16.6667 3.73384 16.5789 3.57756 16.4226C3.42128 16.2663 3.33348 16.0543 3.33348 15.8333V12.7617L1.16098 10.5892C1.00476 10.4329 0.916992 10.221 0.916992 9.99999C0.916992 9.77902 1.00476 9.5671 1.16098 9.41083L3.33348 7.23833V4.16666C3.33348 3.94565 3.42128 3.73369 3.57756 3.57741C3.73384 3.42113 3.9458 3.33333 4.16681 3.33333H7.23848ZM10.0001 12.5C10.6632 12.5 11.2991 12.2366 11.7679 11.7678C12.2368 11.2989 12.5001 10.663 12.5001 9.99999C12.5001 9.33695 12.2368 8.70107 11.7679 8.23223C11.2991 7.76339 10.6632 7.49999 10.0001 7.49999C9.33711 7.49999 8.70122 7.76339 8.23238 8.23223C7.76354 8.70107 7.50015 9.33695 7.50015 9.99999C7.50015 10.663 7.76354 11.2989 8.23238 11.7678C8.70122 12.2366 9.33711 12.5 10.0001 12.5Z" fill="#A1A1AA"/>
</svg>
